<?xml version="1.0" encoding="UTF-8" standalone="no"?><!DOCTYPE svg PUBLIC "-//W3C//DTD SVG 1.1//EN" "http://www.w3.org/Graphics/SVG/1.1/DTD/svg11.dtd"><svg width="622" height="139" viewBox="97 68 622 139" version="1.1" xmlns="http://www.w3.org/2000/svg" xmlns:xlink="http://www.w3.org/1999/xlink" xml:space="preserve" xmlns:serif="http://www.serif.com/" style="fill-rule:evenodd;clip-rule:evenodd;stroke-linejoin:round;stroke-miterlimit:2;"><rect id="Page-1" serif:id="Page 1" x="0" y="0" width="818" height="275" style="fill:none;"/><g id="Layer-1" serif:id="Layer 1"><path d="M176.885,166.697l0,-59.189l51.125,29.523l-51.125,29.666Zm114.059,-77.046c-2.305,-8.497 -8.786,-15.122 -17.426,-17.426c-15.266,-4.176 -77.047,-4.176 -77.047,-4.176c0,0 -61.637,0 -76.902,4.176c-8.497,2.304 -15.122,8.929 -17.57,17.426c-4.032,15.265 -4.032,47.38 -4.032,47.38c0,0 0,32.114 4.032,47.524c2.448,8.352 9.073,15.121 17.57,17.425c15.265,4.176 76.902,4.176 76.902,4.176c0,0 61.781,0 77.047,-4.176c8.64,-2.304 15.121,-9.073 17.426,-17.425c4.175,-15.41 4.175,-47.524 4.175,-47.524c0,0 0,-32.115 -4.175,-47.38" style="fill:#fff;fill-rule:nonzero;"/><path d="M337.079,197.66l0,-37.803l-22.826,-83.168l19.802,0l8.209,36.867c1.872,8.498 3.816,20.666 4.68,25.059l0.144,0c0.864,-4.248 2.736,-16.417 4.68,-24.914l8.498,-37.012l19.801,0l-23.114,83.168l0,37.803l-19.874,0Z" style="fill:#fff;fill-rule:nonzero;"/><path d="M408.218,143.08c0,-16.994 -1.584,-21.89 -7.2,-21.89c-5.761,0 -7.489,4.896 -7.489,21.89l0,20.306c0,17.569 1.728,22.033 7.201,22.033c5.904,0 7.488,-4.464 7.488,-22.033l0,-20.306Zm20.162,6.769l0,7.056c0,31.395 -6.913,42.051 -27.507,42.051c-21.17,0 -27.506,-10.944 -27.506,-42.051l0,-7.056c0,-32.115 8.208,-42.34 27.939,-42.34c19.729,0 27.074,10.656 27.074,42.34" style="fill:#fff;fill-rule:nonzero;"/><path d="M436.726,175.626l0,-66.39l19.874,0l0,64.302c0,7.777 1.728,11.233 5.832,11.233c3.097,0 6.12,-1.368 8.28,-7.128l0,-68.407l19.874,0l0,88.28l-16.849,0l-1.152,-11.881l-0.072,0c-2.448,8.425 -7.272,13.609 -17.281,13.609c-13.25,0 -18.506,-8.496 -18.506,-23.618" style="fill:#fff;fill-rule:nonzero;"/><path d="M504.551,197.516l0,-103.833l-19.657,0l0,-16.994l59.189,0l0,16.994l-19.658,0l0,103.833l-19.874,0Z" style="fill:#fff;fill-rule:nonzero;"/><path d="M538.607,175.626l0,-66.39l19.874,0l0,64.302c0,7.777 1.728,11.233 5.832,11.233c3.097,0 6.12,-1.368 8.28,-7.128l0,-68.407l19.874,0l0,88.28l-16.849,0l-1.152,-11.881l-0.072,0c-2.448,8.425 -7.272,13.609 -17.281,13.609c-13.25,0 -18.506,-8.496 -18.506,-23.618" style="fill:#fff;fill-rule:nonzero;"/><path d="M638.329,146.536c0,-20.45 -1.728,-24.914 -7.272,-24.914c-3.745,0 -7.346,3.312 -8.785,9.649l0,48.748c1.727,3.384 4.752,4.824 7.92,4.824c5.977,0 8.137,-6.336 8.137,-25.49l0,-12.817Zm20.307,0l0,11.809c0,28.515 -6.049,40.467 -19.443,40.467c-8.136,0 -14.257,-3.6 -17.425,-9.648l-0.072,0l-1.296,8.352l-17.282,0l0,-125.291l19.154,0l0,25.347c0,6.625 0.143,13.249 -0.433,21.17l0.216,0c3.313,-6.625 9.002,-11.233 17.93,-11.233c12.818,0 18.651,8.352 18.651,39.027" style="fill:#fff;fill-rule:nonzero;"/><path d="M686.062,141.928l0,6.697l13.104,0l0,-6.697c0,-16.273 -0.647,-20.882 -6.624,-20.882c-5.976,0 -6.48,4.753 -6.48,20.882m32.906,17.786l-32.906,0l0,4.824c0,15.554 0.359,20.882 6.769,20.882c6.335,0 7.776,-4.897 7.919,-14.977l17.499,0.792c1.295,19.225 -8.641,27.722 -25.491,27.722c-20.45,0 -26.498,-13.393 -26.498,-37.731l0,-15.41c0,-25.634 6.769,-38.163 27.074,-38.163c20.45,0 25.634,10.657 25.634,37.299l0,14.762Z" style="fill:#fff;fill-rule:nonzero;"/></g></svg>
